<svg xmlns="http://www.w3.org/2000/svg" viewBox="0 0 512 512">
    <path style="fill:#FFD41D;" d="M263.325,164.864c-0.01,0.199-0.01,0.408-0.01,0.606c0,7.586,5.674,13.96,13.197,14.827  c15.37,1.787,28.045,8.537,37.355,18.108c3.929,4.023,7.252,8.547,9.927,13.416c5.11,9.279,7.868,19.79,7.931,30.406  c0.031,5.517-0.658,11.065-2.132,16.488c-3.041,11.191-9.394,21.849-19.487,30.574c-5.81,5.026-12.069,9.55-18.693,13.51  c-27.376,16.353-43.771,46.247-43.771,78.127v26.143c0,14.723,5.966,28.035,15.611,37.679c9.634,9.644,22.967,15.611,37.679,15.611  c12.121,0,23.082-4.911,31.023-12.852c7.941-7.952,12.852-18.923,12.852-31.033c0-6.708-5.496-12.142-12.236-12.016  c-6.635,0.125-11.818,5.831-11.797,12.466c0.031,7.032-5.977,12.612-13.009,12.612h-0.825c-7.649,0-13.845-6.196-13.845-13.845  v-8.098c0-25.36,20.762-45.871,46.226-45.443c24.921,0.418,44.669,21.264,44.669,46.195v17.157  c0,47.773-38.724,86.496-86.496,86.496h-16.468c-63.446,0-114.886-51.43-114.886-114.876v-62.286l-67.385,22.309V210.411  l67.385,22.309V50.698C166.139,22.695,188.835,0,216.838,0h44.91c26.394,0,50.301,10.7,67.594,28.003  c17.303,17.293,28.003,41.2,28.003,67.605c0,9.571,7.764,17.335,17.345,17.335h38.557v37.616H278.653  C270.576,150.559,263.649,156.797,263.325,164.864z"/>
    <polygon style="fill:#FFA91F;" points="166.139,232.719 166.139,334.837 98.754,357.145 98.754,210.411 "/>
    <path style="fill:#EFC71D;" d="M309.488,511.164c-3.918,0.554-7.92,0.836-11.995,0.836h-16.468  c-63.446,0-114.886-51.43-114.886-114.876V50.699c0-28.003,22.695-50.698,50.698-50.698h42.318  c-28.003,0-50.698,22.695-50.698,50.698v346.425C208.457,455.879,252.572,504.33,309.488,511.164z"/>
    <circle style="fill:#FFFFFF;" cx="282.947" cy="79.23" r="29.015"/>
    <path style="fill:#4D4D4D;" d="M282.948,96.475c-7.134,0-13.71-4.587-16.168-11.279c-2.475-6.737-0.443-14.579,5.097-19.186  c5.591-4.65,13.678-5.29,19.924-1.564c6.181,3.687,9.453,11.101,8.044,18.153C298.254,90.549,291.068,96.475,282.948,96.475z"/>
    <path style="fill:#EFC71D;" d="M225.077,37.395c0.993,15.096,1.615,30.267,4.694,45.129c2.3,11.101,5.418,21.898,9.255,32.556  c2.903,8.065,6.613,15.8,9.699,23.788c-12.149-6.422-21.339-17.655-27.206-29.916c-6.605-13.804-9.087-29.968-6.73-45.091  C216.243,54.526,219.376,45.032,225.077,37.395z"/>
    <path style="fill:#E2901A;" d="M150.34,253.868c-0.7,3.772-4.002,6.405-7.701,6.405c-0.47,0-0.961-0.042-1.442-0.136l-42.444-7.889   v-15.945l45.307,8.422C148.313,245.519,151.123,249.615,150.34,253.868z"/>
    <path style="fill:#E2901A;" d="M144.061,319.696l-45.307,8.422v-15.945l42.444-7.889c4.253-0.784,8.349,2.017,9.143,6.28   C151.123,314.817,148.313,318.902,144.061,319.696z"/>
    <path style="fill:#E2901A;" d="M133.6,282.216c0,4.326-3.511,7.837-7.837,7.837H98.753v-15.673h27.011   C130.091,274.379,133.6,277.88,133.6,282.216z"/>
    <polygon style="fill:#FFA91F;" points="187.517,114.176 133.182,127.759 133.182,42.078 186.472,58.796 "/>
    <path style="fill:#E2901A;" d="M168.041,78.043c-0.721,3.751-4.002,6.353-7.68,6.353c-0.491,0-0.993-0.042-1.494-0.136   l-25.684-4.942v-15.82c0.491,0,0.993,0.052,1.484,0.146l27.167,5.224C166.076,69.684,168.866,73.791,168.041,78.043z"/>
    <path style="fill:#E2901A;" d="M161.833,107.948l-27.167,5.224c-0.502,0.094-0.993,0.146-1.484,0.146v-15.82l25.684-4.942   c4.253-0.815,8.359,1.964,9.174,6.217C168.866,103.027,166.076,107.133,161.833,107.948z"/>
    <path style="fill:#EFC71D;" d="M323.792,211.821c-9.874,3.229-29.654,8.359-55.557,8.359c-15.684,0-33.614-1.881-52.976-7.21   c-4.169-1.149-6.625-5.454-5.475-9.634c1.149-4.169,5.465-6.625,9.634-5.475c42.402,11.661,77.625,5.245,94.448,0.543   C317.796,202.428,321.118,206.952,323.792,211.821z"/>
    <path style="fill:#EFC71D;" d="M331.723,242.228c0.031,5.517-0.658,11.065-2.132,16.488c-13.991,2.8-36.979,6.322-64.136,6.322   c-10.083,0-20.731-0.491-31.723-1.682c-4.305-0.46-7.408-4.326-6.949-8.631c0.47-4.305,4.315-7.408,8.631-6.949   C277.796,252.363,315.706,245.739,331.723,242.228z"/>
</svg>