<svg xmlns="http://www.w3.org/2000/svg" viewBox="0 0 512 512">
    <path style="fill:#71B4E0;" d="M449.525,65.924c-9.665,0-17.5,7.835-17.5,17.5v177.167c0,53.59-24.08,101.656-61.979,133.967  c21.455-37.584,33.156-84.54,33.156-133.967V39.632c0-9.665-7.835-17.5-17.5-17.5c-9.665,0-17.5,7.835-17.5,17.5v220.959  c0,48.261-12.439,93.399-35.026,127.101c-10.089,15.054-21.607,26.871-33.999,35.123c2.1-6.478,4.064-13.597,5.888-21.393  c8.853-37.821,13.727-87.836,13.727-140.831V17.5c0-9.665-7.835-17.5-17.5-17.5s-17.5,7.835-17.5,17.5v243.091  c0,45.376-3.794,89.096-10.683,123.108c-6.087,30.052-13.017,44.717-17.111,50.566c-4.095-5.849-11.024-20.514-17.111-50.566  c-6.889-34.012-10.683-77.732-10.683-123.108V17.5c0-9.665-7.835-17.5-17.5-17.5c-9.665,0-17.5,7.835-17.5,17.5v243.091  c0,52.995,4.875,103.01,13.726,140.831c1.824,7.795,3.788,14.914,5.888,21.393c-12.393-8.252-23.91-20.07-33.999-35.123  c-22.587-33.701-35.026-78.84-35.026-127.101V39.632c0-9.665-7.835-17.5-17.5-17.5c-9.665,0-17.5,7.835-17.5,17.5v220.959  c0,49.427,11.7,96.382,33.155,133.966c-37.898-32.312-61.978-80.377-61.978-133.966V83.424c0-9.665-7.835-17.5-17.5-17.5  s-17.5,7.835-17.5,17.5v177.167c0,105.515,77.842,193.188,179.114,208.616v35.073h63.822v-35.073  c101.273-15.427,179.114-103.101,179.114-208.616V83.424C467.025,73.759,459.19,65.924,449.525,65.924z"/>
    <path style="fill:#9CCC5F;" d="M491.729,512H20.271c-4.264,0-7.72-3.457-7.72-7.72s3.457-7.72,7.72-7.72h471.458  c4.265,0,7.72,3.457,7.72,7.72S495.993,512,491.729,512z"/>
</svg>