<svg xmlns="http://www.w3.org/2000/svg" viewBox="0 0 512 512">
    <polyline style="fill:#F94F79;" points="193.122,485.06 238.682,329.134 176.032,293.333 110.509,280.592 116.246,251.07    158.92,259.37 150.912,235.325 65.805,219.359 59.233,153.654 0,132.644 10.058,104.298 55.928,120.566 52.18,83.097    82.244,81.459 90.563,164.667 137.97,96.601 162.648,113.794 105.284,196.168 156.007,205.673 202.278,144.521 226.263,162.667    179.147,224.925 187.708,250.588 210.809,226.382 232.573,247.152 205.483,275.527 253.895,303.18 289.505,283.757    261.873,238.671 287.526,222.956 308.496,257.18 342.961,179.92 299.785,129.549 236.381,103.203 247.926,75.43 297.393,95.978    307.17,41.869 336.772,47.215 324.945,112.678 365.127,159.563 399.23,146.651 364.997,105.725 388.057,86.423 414.061,117.511    427.496,19.402 457.298,23.491 453.822,48.823 494.798,20.256 512,44.924 448.275,89.357 438.026,164.134 371.759,189.204    357.812,220.454 394.829,209.481 403.38,238.319 341.685,256.617 322.262,300.155 268.756,329.335 278.804,387.895 311.29,354.817    329.758,378.56 288.852,425.997 298.9,485.06  "/>
    <path style="fill:#F94F79;" d="M172.328,370.479c-2.943-2.943-7.715-2.943-10.657,0l-8.954,8.954l-6.592-23.729   c-1.113-4.01-5.264-6.358-9.278-5.244c-4.01,1.114-6.358,5.268-5.244,9.278l8.871,31.937l-19.767,19.767l-43.353-13.873   l-10.595-15.893c-2.308-3.463-6.988-4.399-10.45-2.09c-3.464,2.308-4.399,6.987-2.09,10.45l12.058,18.087   c0.947,1.421,2.347,2.477,3.974,2.997l45.001,14.401v59.542c0,4.162,3.374,7.536,7.536,7.536c4.162,0,7.536-3.374,7.536-7.536   v-61.921l23.917-23.917l18.087-18.087C175.271,378.194,175.271,373.422,172.328,370.479z"/>
    <path style="fill:#9CCC5F;" d="M483.128,492.598H22.929c-4.162,0-7.536-3.374-7.536-7.536s3.374-7.536,7.536-7.536h460.199  c4.162,0,7.536,3.374,7.536,7.536S487.29,492.598,483.128,492.598z"/>
</svg>