<svg xmlns="http://www.w3.org/2000/svg" viewBox="0 0 512 512">
    <path style="fill:#9CCC5F;" d="M236.329,322.778l-5.052-7.654l-20.664,61.303c-13.595,40.332-7.835,84.679,15.612,120.2l5.052,7.654  l20.664-61.303C265.536,402.646,259.776,358.298,236.329,322.778z"/>
    <path style="fill:#B9E291;" d="M236.328,133.621l-5.052-7.654l-20.664,61.303c-13.595,40.332-7.835,84.679,15.612,120.2l5.052,7.654  l20.664-61.303C265.536,213.489,259.776,169.142,236.328,133.621z"/>
    <path style="fill:#9CCC5F;" d="M234.64,5.096L231.276,0l-13.761,40.824c-9.053,26.859-5.218,56.392,10.397,80.047l3.364,5.096   l13.761-40.824C254.091,58.285,250.254,28.751,234.64,5.096z"/>
    <path style="fill:#9CCC5F;" d="M407.524,322.778l-5.052-7.654l-20.664,61.303c-13.595,40.332-7.835,84.679,15.612,120.2   l5.052,7.654l20.664-61.303C436.732,402.646,430.972,358.298,407.524,322.778z"/>
    <path style="fill:#9CCC5F;" d="M397.42,181.503l5.052,7.654l20.664-61.303c13.595-40.332,7.835-84.679-15.612-120.2L402.471,0   l-20.664,61.303C368.213,101.635,373.973,145.983,397.42,181.503z"/>
    <path style="fill:#B9E291;" d="M399.109,310.028l3.364,5.096l13.761-40.824c9.053-26.859,5.218-56.392-10.397-80.047l-3.364-5.096  l-13.761,40.824C379.658,256.84,383.494,286.373,399.109,310.028z"/>
    <path style="fill:#9CCC5F;" d="M311.856,322.778l-5.052-7.654l-20.664,61.303c-13.595,40.332-7.835,84.679,15.612,120.2l5.052,7.654  l20.664-61.303C341.063,402.646,335.304,358.299,311.856,322.778z"/>
    <path style="fill:#B9E291;" d="M310.268,190.673l-3.464-5.248l-14.168,42.033c-9.322,27.654-5.372,58.062,10.705,82.418l3.464,5.248  l14.168-42.033C330.295,245.437,326.345,215.029,310.268,190.673z"/>
    <path style="fill:#9CCC5F;" d="M310.169,64.554l-3.364-5.096l-13.761,40.824c-9.053,26.859-5.218,56.392,10.396,80.047l3.364,5.096  l13.761-40.824C329.619,117.743,325.783,88.209,310.169,64.554z"/>
    <path style="fill:#B9E291;" d="M103.212,322.778l-5.052-7.654l-20.664,61.303c-13.595,40.332-7.835,84.679,15.612,120.2l5.053,7.654  l20.664-61.303C132.419,402.646,126.659,358.299,103.212,322.778z"/>
    <path style="fill:#9CCC5F;" d="M101.624,193.845l-3.464-5.248l-14.168,42.033c-9.322,27.654-5.372,58.062,10.705,82.418   l3.464,5.248l14.168-42.033C121.651,248.608,117.701,218.201,101.624,193.845z"/>
    <path style="fill:#9CCC5F;" d="M489.862,512H22.138c-4.264,0-7.719-3.456-7.719-7.719s3.455-7.719,7.719-7.719h467.724   c4.264,0,7.719,3.456,7.719,7.719S494.125,512,489.862,512z"/>
</svg>