<svg xmlns="http://www.w3.org/2000/svg" viewBox="0 0 512 160">
    <path style="fill:#B3EFFF;" d="M399.473,56.264h-33.758V0h33.758c15.54,0,28.132,12.592,28.132,28.132S415.013,56.264,399.473,56.264z"/>
    <path style="fill:#B3EFFF;" d="M256,56.264l-61.89-22.505v50.637h33.758C243.408,84.396,256,71.804,256,56.264z"/>
    <path style="fill:#D9F7FF;" d="M365.714,56.264c15.54,0,28.132-12.592,28.132-28.132S381.254,0,365.714,0H168.791c-15.54,0-28.132,12.592-28.132,28.132H28.132C12.592,28.132,0,40.724,0,56.264s12.592,28.132,28.132,28.132H194.11c15.54,0,28.132-12.592,28.132-28.132H256H365.714z"/>
    <path style="fill:#B3EFFF;" d="M483.868,95.648H450.11v56.264h33.758c15.54,0,28.132-12.592,28.132-28.132S499.408,95.648,483.868,95.648z"/>
    <path style="fill:#D9F7FF;" d="M450.11,95.648c15.54,0,28.132,12.592,28.132,28.132s-12.592,28.132-28.132,28.132h-84.396c-15.54,0-28.132-12.592-28.132-28.132s12.592-28.132,28.132-28.132H450.11z"/>
</svg>